<?xml version="1.0" encoding="utf-8"?>
<!-- Generator: Adobe Illustrator 21.0.0, SVG Export Plug-In . SVG Version: 6.00 Build 0)  -->
<svg version="1.1" id="Layer_1" xmlns="http://www.w3.org/2000/svg" xmlns:xlink="http://www.w3.org/1999/xlink" x="0px" y="0px"
	 viewBox="0 0 385 329.2" style="enable-background:new 0 0 385 329.2;" xml:space="preserve">
<style type="text/css">
	.st0{fill:#2381BA;}
	.st1{fill:none;stroke:#FFFFFF;stroke-miterlimit:10;}
	.st2{fill:#FFFFFF;}
	.st3{font-family:'Hanken-Light';}
	.st4{font-size:123.7733px;}
	.st5{font-family:'SourceCodePro-Regular';}
	.st6{font-size:18.1534px;}
</style>
<g>
	<circle class="st1" cx="132.1" cy="69.9" r="12.8"/>
	<circle class="st1" cx="94.2" cy="69.9" r="12.8"/>
	<circle class="st1" cx="132.1" cy="106.5" r="12.8"/>
	<circle class="st2" cx="94.2" cy="106.5" r="12.8"/>
	<circle class="st2" cx="94.2" cy="36.4" r="12.8"/>
	<circle class="st2" cx="132.1" cy="36.4" r="12.8"/>
	<circle class="st1" cx="220.5" cy="69.9" r="12.8"/>
	<circle class="st1" cx="182.6" cy="69.9" r="12.8"/>
	<circle class="st1" cx="182.6" cy="106.5" r="12.8"/>
	<circle class="st2" cx="182.6" cy="36.4" r="12.8"/>
	<circle class="st1" cx="220.5" cy="36.4" r="12.8"/>
	<circle class="st2" cx="308.7" cy="69.9" r="12.8"/>
	<circle class="st2" cx="270.8" cy="69.9" r="12.8"/>
	<circle class="st2" cx="308.7" cy="106.5" r="12.8"/>
	<circle class="st1" cx="270.8" cy="106.5" r="12.8"/>
	<circle class="st1" cx="270.8" cy="36.4" r="12.8"/>
	<circle class="st2" cx="308.7" cy="36.4" r="12.8"/>
</g>
<g>
	<text transform="matrix(1 0 0 1 20.3477 264.2336)" class="st2 st3 st4">MAW</text>
</g>
<text transform="matrix(1.0345 0 0 1 30.5244 297.0685)" class="st2 st5 st6">Manual de Acessibilidade Web</text>
</svg>
